<?xml version="1.0" standalone="no"?>
<!DOCTYPE svg PUBLIC "-//W3C//DTD SVG 20010904//EN"
 "http://www.w3.org/TR/2001/REC-SVG-20010904/DTD/svg10.dtd">
<svg version="1.0" xmlns="http://www.w3.org/2000/svg"
 width="550.000000pt" height="550.000000pt" viewBox="0 0 550.000000 550.000000"
 preserveAspectRatio="xMidYMid meet">
<metadata>
Created by potrace 1.14, written by Peter Selinger 2001-2017
</metadata>
<g transform="translate(0.000000,550.000000) scale(0.100000,-0.100000)"
fill="#000000" stroke="none">
<path d="M5304 4964 c70 -181 107 -403 126 -749 8 -134 8 -241 0 -359 -11
-181 -7 -234 7 -89 13 138 5 608 -12 752 -26 210 -86 450 -115 459 -9 3 -11
-1 -6 -14z"/>
<path d="M1082 4843 c-40 -162 -47 -198 -72 -391 -33 -257 -71 -806 -56 -791
4 3 11 84 17 180 24 421 92 933 145 1081 16 47 16 48 6 48 -5 0 -23 -57 -40
-127z"/>
<path d="M1897 4964 c-4 -4 -7 -17 -7 -28 1 -19 1 -20 11 -3 11 19 8 43 -4 31z"/>
<path d="M2412 4957 c-12 -14 -48 -194 -56 -282 l-6 -60 15 65 c21 94 53 189
81 237 13 23 24 44 24 47 0 11 -48 6 -58 -7z"/>
<path d="M3547 4956 c-4 -10 -7 -25 -6 -34 0 -11 4 -9 10 7 5 13 8 29 6 35 -2
5 -6 2 -10 -8z"/>
<path d="M1656 4949 c-21 -67 -53 -255 -66 -394 -13 -127 -40 -579 -40 -664 0
-120 8 -57 19 154 26 483 48 695 87 849 8 32 13 61 10 64 -3 2 -7 -1 -10 -9z"/>
<path d="M2861 4942 c-17 -31 -13 -40 5 -14 9 13 14 26 11 29 -3 2 -10 -4 -16
-15z"/>
<path d="M2610 4929 c-7 -11 -10 -23 -7 -25 2 -2 9 7 15 21 14 30 7 33 -8 4z"/>
<path d="M3503 4938 c-38 -54 -224 -540 -211 -553 2 -3 24 50 47 118 49 140
129 342 159 405 20 42 22 53 5 30z"/>
<path d="M3521 4863 c-27 -94 -64 -336 -51 -328 4 3 10 35 14 72 4 37 18 117
32 177 23 105 27 158 5 79z"/>
<path d="M3233 4707 c-97 -146 -145 -241 -207 -407 -69 -182 -107 -337 -112
-450 l-4 -95 15 65 c41 178 154 460 239 595 28 45 33 32 15 -45 -16 -68 -39
-259 -38 -304 2 -33 3 -35 6 -11 31 250 61 390 134 634 22 73 39 135 37 137
-2 2 -40 -52 -85 -119z"/>
<path d="M2931 4714 c0 -11 3 -14 6 -6 3 7 2 16 -1 19 -3 4 -6 -2 -5 -13z"/>
<path d="M3893 4685 c0 -27 2 -38 4 -22 2 15 2 37 0 50 -2 12 -4 0 -4 -28z"/>
<path d="M4189 4679 c-6 -13 -7 -19 -1 -15 6 3 13 -2 15 -11 3 -10 5 -3 6 15
1 37 -4 40 -20 11z"/>
<path d="M2921 4674 c0 -11 3 -14 6 -6 3 7 2 16 -1 19 -3 4 -6 -2 -5 -13z"/>
<path d="M4092 4660 c0 -14 2 -19 5 -12 2 6 2 18 0 25 -3 6 -5 1 -5 -13z"/>
<path d="M2852 4608 c-59 -86 -138 -267 -195 -443 -46 -143 -39 -154 12 -18
77 206 129 331 176 421 24 45 42 82 40 82 -2 0 -17 -19 -33 -42z"/>
<path d="M2911 4634 c0 -11 3 -14 6 -6 3 7 2 16 -1 19 -3 4 -6 -2 -5 -13z"/>
<path d="M4192 4610 c0 -14 2 -19 5 -12 2 6 2 18 0 25 -3 6 -5 1 -5 -13z"/>
<path d="M4505 4575 c-3 -26 -4 -49 -2 -52 3 -3 9 16 12 42 4 25 5 48 2 51 -2
3 -8 -16 -12 -41z"/>
<path d="M2335 4540 c-4 -39 -5 -73 -2 -76 2 -3 8 27 11 67 4 39 5 73 3 76 -3
2 -8 -28 -12 -67z"/>
<path d="M4416 4579 c-8 -42 0 -50 9 -9 4 17 5 34 2 36 -2 3 -7 -10 -11 -27z"/>
<path d="M2902 4580 c0 -14 2 -19 5 -12 2 6 2 18 0 25 -3 6 -5 1 -5 -13z"/>
<path d="M2892 4525 c0 -16 2 -22 5 -12 2 9 2 23 0 30 -3 6 -5 -1 -5 -18z"/>
<path d="M5101 4524 c0 -11 3 -14 6 -6 3 7 2 16 -1 19 -3 4 -6 -2 -5 -13z"/>
<path d="M3463 4475 c0 -22 2 -30 4 -17 2 12 2 30 0 40 -3 9 -5 -1 -4 -23z"/>
<path d="M2883 4455 c0 -22 2 -30 4 -17 2 12 2 30 0 40 -3 9 -5 -1 -4 -23z"/>
<path d="M4602 4460 c0 -14 2 -19 5 -12 2 6 2 18 0 25 -3 6 -5 1 -5 -13z"/>
<path d="M5114 4365 c0 -66 1 -92 3 -57 2 34 2 88 0 120 -2 31 -3 3 -3 -63z"/>
<path d="M5011 4373 c1 -67 4 -88 9 -68 11 45 11 153 0 160 -6 4 -10 -29 -9
-92z"/>
<path d="M2312 4328 c-30 -312 -23 -787 14 -973 11 -56 12 -60 9 -20 -3 28
-10 104 -15 170 -15 159 -14 603 0 788 7 82 10 150 8 153 -3 2 -10 -51 -16
-118z"/>
<path d="M4963 4405 c0 -22 2 -30 4 -17 2 12 2 30 0 40 -3 9 -5 -1 -4 -23z"/>
<path d="M3330 4415 c0 -5 20 -32 45 -60 24 -27 44 -45 44 -40 0 6 -20 33 -44
60 -25 28 -45 46 -45 40z"/>
<path d="M4567 4309 c-36 -147 -83 -271 -177 -465 -73 -153 -166 -312 -176
-302 -2 3 2 20 10 39 25 59 96 272 93 275 -2 2 -14 -22 -27 -54 -13 -31 -72
-154 -131 -272 -105 -211 -164 -355 -156 -388 2 -10 8 6 15 33 17 79 26 94
102 185 99 118 166 222 248 385 111 222 185 425 222 608 20 100 5 72 -23 -44z"/>
<path d="M2866 4343 c-9 -86 -17 -301 -12 -288 7 14 28 346 23 351 -2 3 -7
-26 -11 -63z"/>
<path d="M5354 4338 c2 -27 2 -48 1 -48 -2 0 -16 7 -31 15 -51 26 -59 16 -12
-14 34 -22 48 -37 51 -58 2 -15 4 1 5 37 0 36 -4 76 -9 90 -7 19 -8 14 -5 -22z"/>
<path d="M3454 4140 c0 -124 2 -174 3 -112 2 61 2 163 0 225 -1 61 -3 11 -3
-113z"/>
<path d="M3242 4234 c-18 -60 -32 -116 -31 -124 0 -8 16 37 34 100 19 63 33
119 32 124 -2 6 -18 -39 -35 -100z"/>
<path d="M1529 4293 c-8 -10 -21 -27 -29 -38 -15 -20 -15 -20 9 0 21 18 47 55
38 55 -2 0 -10 -8 -18 -17z"/>
<path d="M2550 4294 c0 -11 -34 -86 -76 -168 -42 -81 -74 -149 -72 -151 2 -2
30 49 63 113 48 94 60 111 65 92 4 -16 9 0 18 50 7 40 10 75 7 78 -3 3 -5 -4
-5 -14z"/>
<path d="M3596 4196 c-21 -135 -21 -379 -1 -506 36 -221 142 -511 230 -630
l25 -34 0 65 c0 36 3 69 7 72 3 4 27 -26 53 -66 25 -39 55 -79 65 -87 17 -14
18 -13 12 10 -33 137 -58 431 -51 610 l4 95 -20 -55 c-33 -87 -88 -316 -101
-418 -11 -88 -13 -92 -30 -77 -47 43 -107 195 -159 405 -28 109 -39 465 -20
615 6 53 10 99 7 101 -2 3 -12 -42 -21 -100z"/>
<path d="M5102 4180 c-4 -100 -31 -313 -58 -450 -29 -150 -114 -447 -167 -585
-51 -134 -51 -132 -38 -115 46 64 172 464 215 686 31 161 59 403 53 469 l-3
50 -2 -55z"/>
<path d="M1445 4169 c-9 -17 -15 -33 -13 -35 3 -2 12 12 21 31 21 43 13 47 -8
4z"/>
<path d="M2522 4115 c0 -16 2 -22 5 -12 2 9 2 23 0 30 -3 6 -5 -1 -5 -18z"/>
<path d="M1404 4063 c-15 -45 -19 -89 -19 -198 0 -131 2 -147 33 -244 18 -57
35 -101 37 -99 2 2 -10 50 -27 108 -41 144 -48 281 -20 400 11 47 19 86 17 88
-1 2 -11 -23 -21 -55z"/>
<path d="M3201 4074 c0 -11 3 -14 6 -6 3 7 2 16 -1 19 -3 4 -6 -2 -5 -13z"/>
<path d="M3191 4034 c0 -11 3 -14 6 -6 3 7 2 16 -1 19 -3 4 -6 -2 -5 -13z"/>
<path d="M2512 4005 c0 -16 2 -22 5 -12 2 9 2 23 0 30 -3 6 -5 -1 -5 -18z"/>
<path d="M5328 3870 c-6 -161 -45 -447 -78 -583 -31 -123 -46 -404 -69 -1242
-17 -615 -32 -1565 -25 -1576 23 -37 27 53 35 738 5 400 11 733 13 740 3 6 6
159 7 340 4 483 11 581 53 748 77 309 103 529 92 775 -10 221 -21 244 -28 60z"/>
<path d="M2626 3931 l-39 -6 -19 -79 c-10 -43 -17 -81 -14 -83 2 -2 9 17 15
41 6 26 19 50 31 56 11 6 69 13 129 17 90 5 111 3 115 -8 2 -8 13 -48 25 -89
11 -41 19 -61 16 -45 -2 17 -10 69 -17 118 l-12 87 -96 -1 c-52 -1 -113 -5
-134 -8z"/>
<path d="M2972 3901 c-10 -28 -9 -30 21 -36 117 -22 124 -25 135 -58 9 -30 10
-29 11 24 1 65 -4 71 -71 88 -72 17 -85 15 -96 -18z"/>
<path d="M2469 3896 c12 -14 10 -16 -15 -17 l-29 0 23 -16 c22 -15 22 -17 5
-36 -19 -22 -20 -22 32 -1 13 5 15 -6 15 -67 0 -110 8 -78 11 41 l2 105 -29 3
c-24 3 -26 2 -15 -12z"/>
<path d="M3325 3899 c11 -6 37 -29 58 -52 l38 -42 -22 38 c-19 33 -63 68 -86
67 -4 0 1 -5 12 -11z"/>
<path d="M3463 3845 c0 -33 2 -45 4 -27 2 18 2 45 0 60 -2 15 -4 0 -4 -33z"/>
<path d="M2192 3830 c-20 -95 -43 -280 -49 -400 -6 -123 5 -267 39 -500 19
-138 20 -160 9 -435 -20 -498 -24 -1002 -12 -1300 12 -290 37 -683 46 -722 5
-20 12 -23 55 -23 33 0 50 4 50 13 0 6 -7 71 -15 142 -47 413 -75 974 -75
1485 0 405 9 598 35 800 27 199 31 209 55 132 18 -54 129 -331 145 -361 22
-41 17 -19 -15 69 -30 82 -90 278 -128 420 -54 199 -93 415 -120 660 l-8 75
-12 -55z"/>
<path d="M3167 3843 c-6 -35 -3 -40 49 -92 61 -58 139 -159 149 -191 4 -11 11
-20 17 -20 7 0 8 25 3 77 -6 70 -6 76 9 64 11 -9 16 -10 16 -2 0 16 -138 154
-180 180 -48 29 -56 27 -63 -16z"/>
<path d="M4493 3800 c0 -25 2 -35 4 -22 2 12 2 32 0 45 -2 12 -4 2 -4 -23z"/>
<path d="M3534 3680 c0 -80 2 -112 3 -72 2 39 2 105 0 145 -1 39 -3 7 -3 -73z"/>
<path d="M3141 3754 c0 -11 3 -14 6 -6 3 7 2 16 -1 19 -3 4 -6 -2 -5 -13z"/>
<path d="M3473 3725 c0 -22 2 -30 4 -17 2 12 2 30 0 40 -3 9 -5 -1 -4 -23z"/>
<path d="M4483 3715 c0 -22 2 -30 4 -17 2 12 2 30 0 40 -3 9 -5 -1 -4 -23z"/>
<path d="M2541 3724 c0 -11 3 -14 6 -6 3 7 2 16 -1 19 -3 4 -6 -2 -5 -13z"/>
<path d="M4405 3694 c-46 -17 -75 -41 -35 -29 41 12 90 34 90 39 0 8 -10 6
-55 -10z"/>
<path d="M3025 3675 c-28 -12 -28 -13 -7 -14 91 -3 78 -84 -20 -126 -62 -25
-78 -21 -78 23 l-1 37 -34 -40 c-43 -49 -73 -125 -77 -194 -2 -28 -7 -51 -11
-51 -33 0 -171 92 -228 153 l-31 32 32 -42 c91 -122 246 -191 470 -207 41 -3
69 -3 61 0 -9 5 4 24 44 64 59 60 64 80 17 80 -19 0 -23 -3 -13 -9 19 -12 2
-40 -54 -86 -45 -36 -49 -37 -103 -32 -31 3 -81 11 -109 17 l-53 12 0 44 c0
53 26 121 51 134 10 6 31 10 48 10 29 0 31 -3 31 -34 0 -73 67 -70 98 4 9 22
19 40 22 40 3 0 15 -15 27 -32 19 -27 29 -32 71 -35 44 -3 50 0 60 23 7 14 12
51 12 82 0 66 -30 121 -80 147 -36 19 -105 19 -145 0z"/>
<path d="M4456 3557 c-27 -172 -28 -178 -12 -130 15 44 42 231 34 238 -2 3
-12 -46 -22 -108z"/>
<path d="M3482 3640 c0 -14 2 -19 5 -12 2 6 2 18 0 25 -3 6 -5 1 -5 -13z"/>
<path d="M963 3595 c0 -27 2 -38 4 -22 2 15 2 37 0 50 -2 12 -4 0 -4 -28z"/>
<path d="M967 3247 c-31 -194 -66 -415 -77 -492 -19 -124 -119 -651 -137 -714
-4 -17 -2 -22 8 -19 18 6 71 249 143 654 59 329 136 907 124 920 -2 2 -29
-155 -61 -349z"/>
<path d="M4868 3486 c-57 -203 -174 -466 -283 -639 l-46 -72 47 50 c45 48 47
49 40 20 -4 -16 -23 -68 -42 -115 -19 -47 -38 -92 -41 -100 -3 -8 13 11 36 44
70 98 148 268 223 486 38 114 109 420 96 420 -2 0 -16 -42 -30 -94z"/>
<path d="M4249 3459 c-10 -6 -8 -9 12 -9 14 0 30 -5 37 -12 6 -6 14 -9 18 -6
11 12 -51 37 -67 27z"/>
<path d="M4541 3402 c-38 -77 -99 -171 -145 -222 -17 -19 -21 -27 -10 -17 21
17 22 17 26 -7 3 -14 4 -52 2 -86 -2 -36 1 -58 7 -55 5 4 14 -5 21 -19 18 -42
28 -30 28 34 0 51 2 58 16 53 14 -5 15 -3 5 15 -10 18 -9 22 4 22 21 0 19 17
-4 29 -10 6 -24 25 -30 42 -10 29 -7 38 33 104 44 72 89 165 83 171 -2 2 -18
-27 -36 -64z"/>
<path d="M1541 3313 c-24 -279 -53 -462 -139 -878 -55 -271 -59 -267 -63 65
-1 113 -4 295 -8 405 l-6 200 -13 -165 c-25 -312 -76 -554 -161 -765 -27 -66
-65 -171 -86 -232 -25 -75 -41 -110 -49 -106 -6 4 -38 26 -71 49 -76 52 -169
104 -185 104 -7 0 9 -12 35 -26 27 -14 67 -38 89 -54 23 -17 133 -94 246 -172
113 -78 230 -159 260 -181 l55 -38 -52 48 -52 49 35 44 c20 25 53 62 73 83 50
49 43 -14 87 752 15 267 31 955 22 955 -2 0 -10 -62 -17 -137z"/>
<path d="M2900 3381 c0 -6 4 -13 10 -16 6 -3 7 1 4 9 -7 18 -14 21 -14 7z"/>
<path d="M4240 3380 c12 -7 11 -10 -5 -15 -49 -17 -72 -27 -94 -46 -31 -25
-25 -30 24 -19 96 23 194 1 212 -46 5 -14 8 -12 19 7 30 54 11 87 -65 114 -49
17 -116 21 -91 5z"/>
<path d="M2670 3293 c0 -4 7 -17 16 -28 14 -19 14 -19 11 5 -3 22 -27 43 -27
23z"/>
<path d="M2710 3275 c0 -7 61 -37 66 -33 2 3 -12 12 -31 21 -19 9 -35 15 -35
12z"/>
<path d="M4563 3230 c0 -25 2 -35 4 -22 2 12 2 32 0 45 -2 12 -4 2 -4 -23z"/>
<path d="M2829 3225 c25 -8 56 -25 69 -37 l25 -23 -12 22 c-11 22 -11 22 56
16 38 -3 65 -2 61 2 -4 4 -47 11 -95 15 -49 5 -101 11 -118 14 -16 3 -10 -1
14 -9z"/>
<path d="M3041 3207 c2 -1 13 -9 24 -17 19 -14 19 -14 6 3 -7 9 -18 17 -24 17
-6 0 -8 -1 -6 -3z"/>
<path d="M4542 3118 c-6 -35 -14 -74 -17 -88 -3 -14 1 -8 10 13 14 38 32 137
24 137 -3 0 -10 -28 -17 -62z"/>
<path d="M4265 3160 c-17 -7 -17 -9 -2 -9 9 -1 17 -7 17 -15 0 -15 -56 -76
-70 -76 -5 0 -15 -3 -24 -6 -10 -4 -19 1 -24 15 -7 19 -11 17 -46 -30 -39 -52
-81 -137 -73 -145 2 -3 10 9 17 26 8 20 19 30 34 30 12 0 37 16 56 35 24 24
37 32 45 25 7 -6 19 -8 26 -6 8 2 26 7 41 10 40 9 63 60 59 134 -1 23 -20 28
-56 12z"/>
<path d="M4816 2995 c-9 -26 -7 -32 5 -12 6 10 9 21 6 23 -2 3 -7 -2 -11 -11z"/>
<path d="M4196 2927 c-16 -39 -91 -107 -118 -107 -10 0 -34 7 -53 14 -19 8
-35 13 -35 11 0 -7 72 -42 101 -48 36 -9 123 18 156 49 l28 25 -43 -21 c-52
-25 -70 -23 -43 6 21 23 51 77 51 94 0 24 -31 8 -44 -23z"/>
<path d="M4355 2865 c-87 -116 -138 -205 -195 -338 -99 -231 -164 -338 -267
-443 -102 -104 -196 -151 -458 -229 -349 -104 -525 -158 -521 -162 2 -2 33 2
70 10 36 7 66 11 66 8 0 -3 -14 -53 -30 -111 -17 -58 -30 -114 -29 -125 0 -11
10 18 23 65 33 126 44 143 91 151 54 9 87 -16 175 -135 37 -50 77 -99 88 -109
30 -27 90 -46 142 -45 l45 1 -55 7 c-64 8 -85 18 -122 57 l-27 28 107 80 c219
164 300 218 421 277 l125 61 48 -52 c56 -61 150 -196 233 -333 46 -75 64 -98
81 -98 20 0 22 -7 28 -100 4 -56 4 -273 0 -483 -4 -210 -4 -379 0 -376 3 3 11
251 16 550 17 883 29 1345 40 1498 6 79 9 146 6 148 -3 3 -32 -19 -65 -48 -32
-30 -73 -62 -91 -73 l-32 -18 34 48 c46 65 124 209 143 264 12 35 13 50 4 72
-6 15 -17 28 -24 28 -7 0 -39 -34 -70 -75z"/>
<path d="M4682 2752 c-38 -51 -39 -53 -7 -17 33 36 60 75 53 75 -2 0 -22 -26
-46 -58z"/>
<path d="M4214 2784 c-18 -14 -18 -15 4 -4 12 6 22 13 22 15 0 8 -5 6 -26 -11z"/>
<path d="M4065 2757 c22 -12 133 -14 129 -2 -2 5 -35 10 -73 10 -39 0 -63 -3
-56 -8z"/>
<path d="M3711 2705 c-1 -44 -8 -72 -26 -104 -30 -53 -31 -60 -4 -35 40 36 49
66 40 135 l-8 64 -2 -60z"/>
<path d="M1602 2565 c0 -16 2 -22 5 -12 2 9 2 23 0 30 -3 6 -5 -1 -5 -18z"/>
<path d="M1577 2379 c-48 -400 -52 -487 -52 -1154 0 -620 5 -775 27 -775 6 0
8 15 5 38 -3 20 -11 172 -18 337 -12 308 -1 938 21 1185 31 354 42 489 38 500
-2 7 -11 -52 -21 -131z"/>
<path d="M2694 2205 c18 -10 41 -13 57 -10 18 4 30 1 36 -8 4 -8 51 -26 103
-41 52 -14 138 -47 190 -73 91 -45 115 -51 133 -33 5 4 -3 5 -16 3 -16 -3 -40
5 -66 21 -46 30 -138 64 -250 95 -41 11 -82 28 -91 36 -12 10 -27 14 -43 10
-14 -4 -28 -2 -31 4 -4 6 -17 11 -29 11 -19 0 -19 -2 7 -15z"/>
<path d="M2280 2073 c0 -11 185 -183 280 -259 71 -58 176 -124 196 -124 5 0
-27 24 -71 53 -101 65 -172 123 -302 244 -57 52 -103 91 -103 86z"/>
<path d="M2925 1990 c3 -5 18 -10 32 -10 32 0 28 5 -10 14 -19 4 -26 3 -22 -4z"/>
<path d="M607 1888 c-18 -24 -53 -77 -77 -118 -71 -123 -160 -238 -193 -250
-17 -5 -55 -10 -86 -10 -71 0 -234 -19 -244 -29 -4 -4 23 -4 60 0 38 4 145 11
238 16 94 4 149 9 123 11 l-48 3 48 72 c27 40 72 113 101 162 29 50 71 111 93
138 21 26 35 47 29 47 -5 0 -25 -19 -44 -42z"/>
<path d="M3862 1743 c-140 -142 -255 -408 -372 -860 -9 -38 -20 -49 -85 -93
-40 -27 -102 -73 -137 -102 -80 -66 -208 -197 -208 -212 0 -6 17 8 37 32 55
67 209 199 299 258 45 29 85 59 91 66 6 7 22 60 36 118 49 192 108 359 185
524 56 116 92 174 164 259 60 69 54 74 -10 10z"/>
<path d="M3112 1395 c-1 -16 -5 -47 -8 -67 l-7 -38 -31 21 -31 21 34 -30 c30
-28 35 -39 47 -119 12 -78 61 -255 63 -227 1 6 -11 48 -25 95 -20 65 -28 116
-33 229 -4 80 -9 132 -9 115z"/>
<path d="M1011 1350 c48 -32 141 -119 261 -242 145 -149 190 -190 199 -181 10
10 10 22 0 54 -20 67 -226 267 -361 350 -26 17 -153 69 -166 69 -4 0 26 -23
67 -50z"/>
<path d="M4274 1277 c-39 -45 -228 -305 -233 -320 -6 -18 89 88 195 217 52 63
94 119 94 125 0 22 -28 10 -56 -22z"/>
<path d="M2 1104 l3 -88 40 -23 c53 -30 186 -86 191 -80 3 2 -16 27 -42 56
-130 144 94 -38 267 -217 l132 -137 -144 180 c-174 217 -264 309 -344 351
-110 58 -106 60 -103 -42z"/>
<path d="M3000 1134 c-14 -3 -44 -7 -67 -10 -25 -3 -56 -17 -79 -35 -45 -35
-37 -38 14 -4 27 18 60 27 126 34 49 6 91 13 94 16 6 5 -47 5 -88 -1z"/>
<path d="M2320 1107 c14 -6 40 -22 58 -35 18 -13 32 -21 32 -18 0 10 -66 54
-90 60 l-25 6 25 -13z"/>
<path d="M3187 905 c3 -22 10 -62 13 -90 7 -49 7 -49 8 -10 1 22 -5 63 -13 90
-13 43 -14 45 -8 10z"/>
<path d="M2328 835 c6 -11 30 -38 53 -60 l43 -40 -31 40 c-17 22 -41 49 -53
60 l-23 20 11 -20z"/>
<path d="M3211 744 c0 -11 3 -14 6 -6 3 7 2 16 -1 19 -3 4 -6 -2 -5 -13z"/>
<path d="M2440 646 c0 -3 42 -37 92 -78 153 -121 145 -115 129 -94 -16 19
-208 176 -216 176 -3 0 -5 -2 -5 -4z"/>
</g>
</svg>
